<?xml version="1.0" encoding="UTF-8" standalone="no"?>
<svg
   xmlns:dc="http://purl.org/dc/elements/1.1/"
   xmlns:cc="http://creativecommons.org/ns#"
   xmlns:rdf="http://www.w3.org/1999/02/22-rdf-syntax-ns#"
   xmlns:svg="http://www.w3.org/2000/svg"
   xmlns="http://www.w3.org/2000/svg"
   id="svg535"
   version="1.1"
   viewBox="0 0 136.07143 119.44048"
   height="119.44048mm"
   width="136.07143mm">
  <defs
     id="defs529" />
  <metadata
     id="metadata532">
    <rdf:RDF>
      <cc:Work
         rdf:about="">
        <dc:format>image/svg+xml</dc:format>
        <dc:type
           rdf:resource="http://purl.org/dc/dcmitype/StillImage" />
        <dc:title></dc:title>
      </cc:Work>
    </rdf:RDF>
  </metadata>
    <g
       transform="matrix(0.35277777,0,0,-0.35277777,-14.748629,215.88579)"
       id="g415">
      <path
         id="path106"
         style="fill:#ffffff;fill-opacity:1;fill-rule:evenodd;stroke:none"
         d="m 231.72,581.602 -1.86,-0.12 -1.74,-0.24 -1.74,-0.48 -1.68,-0.6 -1.56,-0.78 -1.5,-0.9 -1.38,-1.02 -1.26,-1.14 -1.2,-1.32 -1.02,-1.38 -0.9,-1.44 -0.72,-1.62 -0.66,-1.62 -0.42,-1.74 -0.24,-1.8 -0.12,-1.8 v -27 l 0.12,-1.86 0.24,-1.8 0.42,-1.74 0.66,-1.62 0.72,-1.56 0.9,-1.5 1.02,-1.38 1.2,-1.32 1.26,-1.14 1.38,-1.02 1.5,-0.9 1.56,-0.78 1.68,-0.6 1.74,-0.42 1.74,-0.3 1.86,-0.06 h 49.5 l 1.86,0.06 1.74,0.3 1.74,0.42 1.68,0.6 1.56,0.78 1.5,0.9 1.38,1.02 1.26,1.14 1.2,1.32 1.02,1.38 0.9,1.5 0.72,1.56 0.66,1.62 0.42,1.74 0.24,1.8 0.12,1.86 v 27 l -0.12,1.8 -0.24,1.8 -0.42,1.74 -0.66,1.62 -0.72,1.62 -0.9,1.44 -1.02,1.38 -1.2,1.32 -1.26,1.14 -1.38,1.02 -1.5,0.9 -1.56,0.78 -1.68,0.6 -1.74,0.48 -1.74,0.24 -1.86,0.12 h -49.5" />
      <path
         id="path108"
         style="fill:#000000;fill-opacity:1;fill-rule:nonzero;stroke:none"
         d="m 231.78,581.362 -1.86,-0.12 -1.74,-0.24 -1.74,-0.48 h 0.06 l -1.68,-0.6 -1.56,-0.78 -1.5,-0.9 0.06,0.06 -1.38,-1.02 -1.26,-1.14 -1.2,-1.32 -1.02,-1.38 0.06,0.06 -0.9,-1.44 -0.72,-1.62 -0.66,-1.62 v 0.06 l -0.42,-1.74 -0.24,-1.8 -0.12,-1.8 v 0.06 -27 l 0.12,-1.86 0.24,-1.8 v 0.06 l 0.42,-1.74 0.66,-1.62 0.72,-1.56 v 0.06 l 0.9,-1.5 h -0.06 l 1.02,-1.38 1.2,-1.32 v 0.06 l 1.26,-1.14 1.38,-1.02 h -0.06 l 1.5,-0.9 1.56,-0.78 v 0.06 l 1.68,-0.6 h -0.06 l 1.74,-0.42 1.74,-0.3 h -0.06 l 1.86,-0.06 h 49.5 l 1.86,0.06 1.74,0.3 h -0.06 l 1.74,0.42 1.68,0.6 -0.06,-0.06 1.56,0.78 0.24,-0.42 -1.56,-0.78 -1.68,-0.6 h -0.06 l -1.74,-0.42 -1.74,-0.3 h -0.06 l -1.86,-0.06 h -49.5 l -1.86,0.06 -1.74,0.3 h -0.06 l -1.74,0.42 -1.68,0.6 h -0.06 l -1.56,0.78 -1.5,0.9 v 0.06 l -1.38,1.02 -1.26,1.14 h -0.06 l -1.2,1.32 -1.02,1.38 v 0.06 l -0.9,1.5 -0.72,1.56 -0.66,1.62 -0.06,0.06 -0.42,1.74 -0.24,1.8 -0.12,1.86 v 27.06 l 0.12,1.8 0.24,1.8 v 0.06 l 0.42,1.74 h 0.06 l 0.66,1.62 0.72,1.62 v 0.06 l 0.9,1.44 1.02,1.38 1.2,1.32 0.06,0.06 1.26,1.14 1.38,1.02 1.5,0.9 1.56,0.78 0.06,0.06 1.68,0.6 1.74,0.48 h 0.06 l 1.74,0.24 1.86,0.12" />
      <path
         id="path110"
         style="fill:#000000;fill-opacity:1;fill-rule:nonzero;stroke:none"
         d="m 289.68,520.942 1.5,0.9 1.38,1.02 1.26,1.14 -0.06,-0.06 1.2,1.32 1.02,1.38 0.9,1.5 v -0.06 l 0.72,1.56 0.66,1.62 h -0.06 l 0.42,1.74 v -0.06 l 0.24,1.8 0.12,1.86 v 27 -0.06 l -0.12,1.8 -0.24,1.8 -0.42,1.74 0.06,-0.06 -0.66,1.62 -0.72,1.62 -0.9,1.44 v -0.06 l -1.02,1.38 -1.2,1.32 h 0.06 l -1.26,1.14 -1.38,1.02 v -0.06 l -1.5,0.9 -1.56,0.78 h 0.06 l -1.68,0.6 -1.74,0.48 h 0.06 l -1.74,0.24 -1.86,0.12 h -49.5 0.06 l -0.06,0.48 h 49.56 l 1.86,-0.12 1.74,-0.24 1.74,-0.48 h 0.06 l 1.68,-0.6 v -0.06 l 1.56,-0.78 1.5,-0.9 h 0.06 l 1.38,-1.02 1.26,-1.14 v -0.06 l 1.2,-1.32 1.02,-1.38 h 0.06 l 0.9,-1.44 v -0.06 l 0.72,-1.62 0.66,-1.62 0.42,-1.74 v -0.06 l 0.24,-1.8 0.12,-1.8 v -27.06 l -0.12,-1.86 -0.24,-1.8 -0.42,-1.74 v -0.06 l -0.66,-1.62 -0.72,-1.56 -0.9,-1.5 -0.06,-0.06 -1.02,-1.38 -1.2,-1.32 -1.26,-1.14 -1.38,-1.02 -0.06,-0.06 -1.5,-0.9" />
      <text
         id="text120"
         style="font-variant:normal;font-weight:normal;font-size:10.98px;font-family:'Times New Roman';-inkscape-font-specification:TimesNewRoman;writing-mode:lr-tb;fill:#000000;fill-opacity:1;fill-rule:nonzero;stroke:none"
         transform="matrix(1,0,0,-1,236.04,564.6217)"><tspan
           id="tspan112"
           y="0"
           x="0 4.883904 10.382688 15.881472 18.942696 23.826599 26.887823 32.348179 37.269413">container</tspan><tspan
           id="tspan114"
           y="12.180114"
           x="6.7197599 12.210858 17.701956 20.755493 23.809032 28.685249">policy</tspan><tspan
           id="tspan116"
           y="24.360228"
           x="-7.0206118 -2.099376 3.3609779 7.0261021 12.524886 16.19001 21.073914 25.957817 34.509041 39.392944 44.891731">enforcement</tspan><tspan
           id="tspan118"
           y="36.479954"
           x="9.1188898 14.589126 20.108772 23.141447 28.611685">point</tspan></text>
      <path
         id="path122"
         style="fill:#ffffff;fill-opacity:1;fill-rule:evenodd;stroke:none"
         d="m 231.72,465.622 -1.86,-0.12 -1.74,-0.24 -1.74,-0.48 -1.68,-0.6 -1.56,-0.72 -1.5,-0.9 -1.38,-1.08 -1.26,-1.14 -1.2,-1.26 -1.02,-1.38 -0.9,-1.5 -0.72,-1.56 -0.66,-1.68 -0.42,-1.74 -0.24,-1.8 -0.12,-1.8 v -27 l 0.12,-1.86 0.24,-1.8 0.42,-1.68 0.66,-1.68 0.72,-1.56 0.9,-1.5 1.02,-1.38 1.2,-1.26 1.26,-1.2 1.38,-1.02 1.5,-0.9 1.56,-0.78 1.68,-0.6 1.74,-0.42 1.74,-0.3 1.86,-0.06 h 49.5 l 1.86,0.06 1.74,0.3 1.74,0.42 1.68,0.6 1.56,0.78 1.5,0.9 1.38,1.02 1.26,1.2 1.2,1.26 1.02,1.38 0.9,1.5 0.72,1.56 0.66,1.68 0.42,1.68 0.24,1.8 0.12,1.86 v 27 l -0.12,1.8 -0.24,1.8 -0.42,1.74 -0.66,1.68 -0.72,1.56 -0.9,1.5 -1.02,1.38 -1.2,1.26 -1.26,1.14 -1.38,1.08 -1.5,0.9 -1.56,0.72 -1.68,0.6 -1.74,0.48 -1.74,0.24 -1.86,0.12 h -49.5" />
      <path
         id="path124"
         style="fill:#000000;fill-opacity:1;fill-rule:nonzero;stroke:none"
         d="m 231.78,465.382 -1.86,-0.12 -1.74,-0.24 -1.74,-0.48 h 0.06 l -1.68,-0.6 -1.56,-0.72 -1.5,-0.9 0.06,0.06 -1.38,-1.08 -1.26,-1.14 -1.2,-1.26 -1.02,-1.38 0.06,0.06 -0.9,-1.5 -0.72,-1.56 -0.66,-1.68 v 0.06 l -0.42,-1.74 -0.24,-1.8 -0.12,-1.8 v 0.06 -27 l 0.12,-1.86 0.24,-1.8 v 0.06 l 0.42,-1.68 0.66,-1.68 0.72,-1.56 v 0.06 l 0.9,-1.5 h -0.06 l 1.02,-1.38 v 0.06 l 1.2,-1.26 1.26,-1.2 1.38,-1.02 h -0.06 l 1.5,-0.9 1.56,-0.78 v 0.06 l 1.68,-0.6 h -0.06 l 1.74,-0.42 1.74,-0.3 h -0.06 l 1.86,-0.06 h 49.5 l 1.86,0.06 1.74,0.3 h -0.06 l 1.74,0.42 1.68,0.6 -0.06,-0.06 1.56,0.78 0.24,-0.42 -1.56,-0.78 -1.68,-0.6 h -0.06 l -1.74,-0.42 -1.74,-0.3 h -0.06 l -1.86,-0.06 h -49.5 l -1.86,0.06 -1.74,0.3 h -0.06 l -1.74,0.42 -1.68,0.6 h -0.06 l -1.56,0.78 -1.5,0.9 v 0.06 l -1.38,1.02 h -0.06 l -1.26,1.2 -1.2,1.26 -1.02,1.38 v 0.06 l -0.9,1.5 -0.72,1.56 -0.66,1.68 -0.06,0.06 -0.42,1.68 -0.24,1.8 -0.12,1.86 v 27.06 l 0.12,1.8 0.24,1.8 v 0.06 l 0.42,1.74 h 0.06 l 0.66,1.68 0.72,1.56 v 0.06 l 0.9,1.5 1.02,1.38 v 0.06 l 1.2,1.26 h 0.06 l 1.26,1.14 1.38,1.08 1.5,0.9 h 0.06 l 1.56,0.72 v 0.06 l 1.68,0.6 1.74,0.48 h 0.06 l 1.74,0.24 1.86,0.12" />
      <path
         id="path126"
         style="fill:#000000;fill-opacity:1;fill-rule:nonzero;stroke:none"
         d="m 289.68,404.962 1.5,0.9 1.38,1.02 h -0.06 l 1.26,1.2 1.2,1.26 v -0.06 l 1.02,1.38 0.9,1.5 v -0.06 l 0.72,1.56 0.66,1.68 h -0.06 l 0.42,1.68 v -0.06 l 0.24,1.8 0.12,1.86 v 27 -0.06 l -0.12,1.8 -0.24,1.8 -0.42,1.74 0.06,-0.06 -0.66,1.68 -0.72,1.56 -0.9,1.5 v -0.06 l -1.02,1.38 -1.2,1.26 h 0.06 l -1.26,1.14 -1.38,1.08 v -0.06 l -1.5,0.9 h 0.06 l -1.56,0.72 -1.68,0.6 -1.74,0.48 h 0.06 l -1.74,0.24 -1.86,0.12 h -49.5 0.06 l -0.06,0.48 h 49.56 l 1.86,-0.12 1.74,-0.24 1.74,-0.48 h 0.06 l 1.68,-0.6 v -0.06 l 1.56,-0.72 1.5,-0.9 h 0.06 l 1.38,-1.08 1.26,-1.14 1.2,-1.26 v -0.06 l 1.02,-1.38 h 0.06 l 0.9,-1.5 v -0.06 l 0.72,-1.56 0.66,-1.68 0.42,-1.74 v -0.06 l 0.24,-1.8 0.12,-1.8 v -27.06 l -0.12,-1.86 -0.24,-1.8 -0.42,-1.68 v -0.06 l -0.66,-1.68 -0.72,-1.56 -0.9,-1.5 -0.06,-0.06 -1.02,-1.38 -1.2,-1.26 -1.26,-1.2 -1.38,-1.02 -0.06,-0.06 -1.5,-0.9" />
      <text
         id="text144"
         style="font-variant:normal;font-weight:normal;font-size:10.98px;font-family:'Times New Roman';-inkscape-font-specification:TimesNewRoman;writing-mode:lr-tb;fill:#000000;fill-opacity:1;fill-rule:nonzero;stroke:none"
         transform="matrix(1,0,0,-1,222.42,448.6417)"><tspan
           id="tspan128"
           y="0"
           x="0 6.1070762 11.599272 14.653908 17.708544 22.585859 28.078056 30.838428 36.330624 39.989159 45.481358 50.973553 54.028187 59.520386 64.397697">Policy provider</tspan><tspan
           id="tspan130"
           y="12.180114"
           x="20.34045 25.831549 31.322645 34.376183 37.429722 42.305939">policy</tspan><tspan
           id="tspan132"
           y="24.299837"
           x="15.720066 21.194695 26.115931 30.975677 34.012745 38.268593 41.30566 46.780289">decision</tspan><tspan
           id="tspan134"
           y="36.479954"
           x="21.360493 26.850492 32.340492 35.392933 40.882931 43.935371">point</tspan><tspan
           id="tspan136"
           y="-42.120377"
           x="-122.93977 -118.06464 -112.57465 -109.52221 -104.0322 -98.542206 -94.885864 -91.833427 -86.958305 -82.083183 -79.030746 -75.97831 -70.488304">authorization</tspan><tspan
           id="tspan138"
           y="-30.000654"
           x="-106.44012 -100.92267 -95.462318 -90.559746 -86.875954">query</tspan><tspan
           id="tspan140"
           y="-42.120377"
           x="133.55962 138.44572 143.9467 146.94864 152.44962 157.95059 161.61792 164.61984 169.54108 174.42719 177.4906 180.55402 186.01437">authorization</tspan><tspan
           id="tspan142"
           y="-30.000654"
           x="150.36012 154.02086 158.90036 163.17598 168.67036 171.7272">result</tspan></text>
      <path
         id="path146"
         style="fill:#000000;fill-opacity:1;fill-rule:nonzero;stroke:none"
         d="m 220.44,353.362 h 72.3 v -0.48 h -72.3 z" />
      <path
         id="path148"
         style="fill:#000000;fill-opacity:1;fill-rule:nonzero;stroke:none"
         d="m 292.26,353.122 h 0.48 v -36.24 h -0.48 z" />
      <path
         id="path150"
         style="fill:#000000;fill-opacity:1;fill-rule:nonzero;stroke:none"
         d="m 220.2,317.362 h 72.3 v -0.48 h -72.3 z" />
      <path
         id="path152"
         style="fill:#000000;fill-opacity:1;fill-rule:nonzero;stroke:none"
         d="m 220.2,353.362 h 0.48 v -36.24 h -0.48 z" />
      <text
         id="text158"
         style="font-variant:normal;font-weight:normal;font-size:10.98px;font-family:'Times New Roman';-inkscape-font-specification:TimesNewRoman;writing-mode:lr-tb;fill:#000000;fill-opacity:1;fill-rule:nonzero;stroke:none"
         transform="matrix(1,0,0,-1,242.76,337.4617)"><tspan
           id="tspan154"
           y="0"
           x="0 5.4910979 10.982196 14.035734 17.089272 21.96549">policy</tspan><tspan
           id="tspan156"
           y="12.119724"
           x="-9.4801321 -5.175972 -2.1740401 2.73402 5.8193998 10.681344 19.202923 24.110983 29.571337 32.656715">statements</tspan></text>
      <path
         id="path160"
         style="fill:#000000;fill-opacity:1;fill-rule:nonzero;stroke:none"
         d="m 256.44,386.602 h -3.3 l 0.18,0.66 2.64,9.24 0.48,1.62 0.48,-1.62 2.7,-9.24 0.18,-0.66 h -0.66 l -0.48,0.36 -2.7,9.24 0.96,0.3 v -0.3 l -2.64,-9.24 -0.96,0.3 0.48,0.36 h 2.64" />
      <path
         id="path162"
         style="fill:#000000;fill-opacity:1;fill-rule:nonzero;stroke:none"
         d="m 256.44,387.622 h 2.7 v -1.02 h -2.7 z" />
      <path
         id="path164"
         style="fill:#000000;fill-opacity:1;fill-rule:evenodd;stroke:none"
         d="m 256.44,387.082 h -2.64 l 2.64,9.24 2.7,-9.24" />
      <path
         id="path166"
         style="fill:#000000;fill-opacity:1;fill-rule:nonzero;stroke:none"
         d="m 256.2,362.122 h 0.48 v -0.24 h -0.48 z" />
      <path
         id="path168"
         style="fill:#000000;fill-opacity:1;fill-rule:nonzero;stroke:none"
         d="m 256.2,386.842 h 0.48 v -24.72 h -0.48 z" />
      <path
         id="path170"
         style="fill:#ffffff;fill-opacity:1;fill-rule:evenodd;stroke:none"
         d="m 102.9,365.542 -1.86,-0.06 -1.8,-0.3 -1.68,-0.42 -1.68,-0.6 -1.56,-0.78 -1.5,-0.9 -1.38,-1.02 -1.26,-1.14 -1.2,-1.32 -1.02,-1.38 -0.9,-1.5 -0.72,-1.56 -0.66,-1.62 -0.42,-1.74 -0.3,-1.8 -0.06,-1.86 v -27 l 0.06,-1.8 0.3,-1.8 0.42,-1.74 0.66,-1.62 0.72,-1.62 0.9,-1.44 1.02,-1.38 1.2,-1.32 1.26,-1.14 1.38,-1.02 1.5,-0.9 1.56,-0.78 1.68,-0.6 1.68,-0.42 1.8,-0.3 1.86,-0.12 h 49.5 l 1.86,0.12 1.74,0.3 1.74,0.42 1.68,0.6 1.56,0.78 1.5,0.9 1.38,1.02 1.26,1.14 1.14,1.32 1.08,1.38 0.9,1.44 0.72,1.62 0.66,1.62 0.42,1.74 0.24,1.8 0.12,1.8 v 27 l -0.12,1.86 -0.24,1.8 -0.42,1.74 -0.66,1.62 -0.72,1.56 -0.9,1.5 -1.08,1.38 -1.14,1.32 -1.26,1.14 -1.38,1.02 -1.5,0.9 -1.56,0.78 -1.68,0.6 -1.74,0.42 -1.74,0.3 -1.86,0.06 h -49.5" />
      <path
         id="path172"
         style="fill:#000000;fill-opacity:1;fill-rule:nonzero;stroke:none"
         d="m 102.9,365.302 -1.86,-0.06 h 0.06 l -1.8,-0.3 -1.68,-0.42 h 0.06 l -1.68,-0.6 -1.56,-0.78 -1.5,-0.9 0.06,0.06 -1.38,-1.02 -1.26,-1.14 -1.2,-1.32 -1.02,-1.38 0.06,0.06 -0.9,-1.5 -0.72,-1.56 -0.66,-1.62 v 0.06 l -0.42,-1.74 -0.3,-1.8 v 0.06 l -0.06,-1.86 v -27 l 0.06,-1.8 0.3,-1.8 v 0.06 l 0.42,-1.74 0.66,-1.62 0.72,-1.62 v 0.06 l 0.9,-1.44 h -0.06 l 1.02,-1.38 1.2,-1.32 v 0.06 l 1.26,-1.14 1.38,-1.02 h -0.06 l 1.5,-0.9 1.56,-0.78 v 0.06 l 1.68,-0.6 h -0.06 l 1.68,-0.42 1.8,-0.3 1.86,-0.12 h -0.06 49.5 l 1.86,0.12 1.74,0.3 h -0.06 l 1.74,0.42 1.68,0.6 -0.06,-0.06 1.56,0.78 0.24,-0.42 -1.56,-0.78 -1.68,-0.6 h -0.06 l -1.74,-0.42 -1.74,-0.3 -1.86,-0.12 H 102.9 l -1.86,0.12 -1.8,0.3 h -0.06 l -1.68,0.42 -1.68,0.6 h -0.06 l -1.56,0.78 -1.5,0.9 v 0.06 l -1.38,1.02 -1.26,1.14 H 90 l -1.2,1.32 -1.02,1.38 v 0.06 l -0.9,1.44 -0.72,1.62 -0.66,1.62 -0.06,0.06 -0.42,1.74 -0.3,1.8 v 0.06 l -0.06,1.8 v 27 l 0.06,1.86 0.3,1.8 v 0.06 l 0.42,1.74 h 0.06 l 0.66,1.62 0.72,1.56 v 0.06 l 0.9,1.5 1.02,1.38 1.2,1.32 0.06,0.06 1.26,1.14 1.38,1.02 1.5,0.9 1.56,0.78 0.06,0.06 1.68,0.6 1.68,0.42 h 0.06 l 1.8,0.3 1.86,0.06" />
      <path
         id="path174"
         style="fill:#000000;fill-opacity:1;fill-rule:nonzero;stroke:none"
         d="m 160.86,304.942 1.5,0.9 1.38,1.02 1.26,1.14 -0.06,-0.06 1.14,1.32 1.08,1.38 0.9,1.44 v -0.06 l 0.72,1.62 0.66,1.62 h -0.06 l 0.42,1.74 v -0.06 l 0.24,1.8 0.12,1.8 v 27 -0.06 l -0.12,1.86 -0.24,1.8 -0.42,1.74 0.06,-0.06 -0.66,1.62 -0.72,1.56 -0.9,1.5 v -0.06 l -1.08,1.38 -1.14,1.32 H 165 l -1.26,1.14 -1.38,1.02 v -0.06 l -1.5,0.9 -1.56,0.78 h 0.06 l -1.68,0.6 -1.74,0.42 H 156 l -1.74,0.3 -1.86,0.06 h -49.5 v 0.48 h 49.5 l 1.86,-0.06 h 0.06 l 1.74,-0.3 1.74,-0.42 h 0.06 l 1.68,-0.6 v -0.06 l 1.56,-0.78 1.5,-0.9 h 0.06 l 1.38,-1.02 1.26,-1.14 v -0.06 l 1.14,-1.32 1.08,-1.38 h 0.06 l 0.9,-1.5 v -0.06 l 0.72,-1.56 0.66,-1.62 0.42,-1.74 v -0.06 l 0.24,-1.8 0.12,-1.86 v -27.06 l -0.12,-1.8 -0.24,-1.8 -0.42,-1.74 v -0.06 l -0.66,-1.62 -0.72,-1.62 -0.9,-1.44 -0.06,-0.06 -1.08,-1.38 -1.14,-1.32 -1.26,-1.14 -1.38,-1.02 -0.06,-0.06 -1.5,-0.9" />
      <text
         id="text182"
         style="font-variant:normal;font-weight:normal;font-size:10.98px;font-family:'Times New Roman';-inkscape-font-specification:TimesNewRoman;writing-mode:lr-tb;fill:#000000;fill-opacity:1;fill-rule:nonzero;stroke:none"
         transform="matrix(1,0,0,-1,107.22,343.0417)"><tspan
           id="tspan176"
           y="0"
           x="0 4.8970799 10.40904 15.921 18.922932 23.820011 26.894411 32.354767 37.276001">container</tspan><tspan
           id="tspan178"
           y="12.119724"
           x="-5.5196462 -0.054900002 4.7949662 10.314612 13.376934 18.841681 24.361326 32.878513 37.799747 43.264496">deployment</tspan><tspan
           id="tspan180"
           y="24.299837"
           x="9.7205944 12.778524 18.274014 23.769505 26.827435">tools</tspan></text>
      <path
         id="path184"
         style="fill:#000000;fill-opacity:1;fill-rule:nonzero;stroke:none"
         d="m 195.48,334.042 v 3.36 l 0.66,-0.18 9.18,-2.7 1.68,-0.48 -1.68,-0.48 -9.18,-2.64 -0.66,-0.18 v 0.66 l 0.36,0.48 9.18,2.64 0.3,-0.96 h -0.3 l -9.18,2.7 0.3,0.96 0.36,-0.48 v -2.7" />
      <path
         id="path186"
         style="fill:#000000;fill-opacity:1;fill-rule:nonzero;stroke:none"
         d="m 195.48,334.042 h 1.02 v -2.64 h -1.02 z" />
      <path
         id="path188"
         style="fill:#000000;fill-opacity:1;fill-rule:evenodd;stroke:none"
         d="m 195.96,334.042 v 2.7 l 9.18,-2.7 -9.18,-2.64" />
      <path
         id="path190"
         style="fill:#000000;fill-opacity:1;fill-rule:nonzero;stroke:none"
         d="m 179.7,334.282 h 0.24 v -0.48 h -0.24 z" />
      <path
         id="path192"
         style="fill:#000000;fill-opacity:1;fill-rule:nonzero;stroke:none"
         d="m 179.94,334.282 h 15.72 v -0.48 h -15.72 z" />
      <path
         id="path194"
         style="fill:#ffffff;fill-opacity:1;fill-rule:evenodd;stroke:none"
         d="m 355.5,365.542 -1.86,-0.06 -1.8,-0.3 -1.74,-0.42 -1.62,-0.6 -1.56,-0.78 -1.5,-0.9 -1.38,-1.02 -1.32,-1.14 -1.14,-1.32 -1.02,-1.38 -0.9,-1.5 -0.78,-1.56 -0.6,-1.62 -0.42,-1.74 -0.3,-1.8 -0.06,-1.86 v -27 l 0.06,-1.8 0.3,-1.8 0.42,-1.74 0.6,-1.62 0.78,-1.62 0.9,-1.44 1.02,-1.38 1.14,-1.32 1.32,-1.14 1.38,-1.02 1.5,-0.9 1.56,-0.78 1.62,-0.6 1.74,-0.42 1.8,-0.3 1.86,-0.12 H 405 l 1.8,0.12 1.8,0.3 1.74,0.42 1.62,0.6 1.62,0.78 1.44,0.9 1.38,1.02 1.32,1.14 1.14,1.32 1.02,1.38 0.9,1.44 0.78,1.62 0.6,1.62 0.48,1.74 0.24,1.8 0.12,1.8 v 27 l -0.12,1.86 -0.24,1.8 -0.48,1.74 -0.6,1.62 -0.78,1.56 -0.9,1.5 -1.02,1.38 -1.14,1.32 -1.32,1.14 -1.38,1.02 -1.44,0.9 -1.62,0.78 -1.62,0.6 -1.74,0.42 -1.8,0.3 -1.8,0.06 h -49.5" />
      <path
         id="path196"
         style="fill:#000000;fill-opacity:1;fill-rule:nonzero;stroke:none"
         d="m 355.5,365.302 -1.86,-0.06 h 0.06 l -1.8,-0.3 -1.74,-0.42 h 0.06 l -1.62,-0.6 -1.56,-0.78 -1.5,-0.9 0.06,0.06 -1.38,-1.02 -1.32,-1.14 -1.14,-1.32 -1.02,-1.38 0.06,0.06 -0.9,-1.5 -0.78,-1.56 -0.6,-1.62 v 0.06 l -0.42,-1.74 -0.3,-1.8 v 0.06 l -0.06,-1.86 v -27 l 0.06,-1.8 0.3,-1.8 v 0.06 l 0.42,-1.74 0.6,-1.62 0.78,-1.62 v 0.06 l 0.9,-1.44 h -0.06 l 1.02,-1.38 1.14,-1.32 v 0.06 l 1.32,-1.14 1.38,-1.02 h -0.06 l 1.5,-0.9 1.56,-0.78 v 0.06 l 1.62,-0.6 h -0.06 l 1.74,-0.42 1.8,-0.3 1.86,-0.12 H 355.5 405 l 1.8,0.12 1.8,0.3 h -0.06 l 1.74,0.42 1.62,0.6 v -0.06 l 1.62,0.78 h -0.06 l 0.24,-0.42 -1.62,-0.78 -1.62,-0.6 h -0.06 l -1.74,-0.42 -1.8,-0.3 -1.8,-0.12 H 355.5 l -1.86,0.12 -1.8,0.3 h -0.06 l -1.74,0.42 -1.62,0.6 h -0.06 l -1.56,0.78 -1.5,0.9 v 0.06 l -1.38,1.02 -1.32,1.14 h -0.06 l -1.14,1.32 -1.02,1.38 v 0.06 l -0.9,1.44 -0.78,1.62 h -0.06 l -0.6,1.62 v 0.06 l -0.42,1.74 -0.3,1.8 v 0.06 l -0.06,1.8 v 27 l 0.06,1.86 0.3,1.8 v 0.06 l 0.42,1.74 0.6,1.62 0.06,0.06 0.78,1.56 0.9,1.5 1.02,1.38 1.14,1.32 0.06,0.06 1.32,1.14 1.38,1.02 1.5,0.9 1.56,0.78 0.06,0.06 1.62,0.6 1.74,0.42 h 0.06 l 1.8,0.3 1.86,0.06" />
      <path
         id="path198"
         style="fill:#000000;fill-opacity:1;fill-rule:nonzero;stroke:none"
         d="m 413.46,304.942 1.44,0.9 1.38,1.02 1.32,1.14 -0.06,-0.06 1.14,1.32 1.02,1.38 0.9,1.44 v -0.06 l 0.78,1.62 h -0.06 l 0.6,1.62 0.48,1.74 v -0.06 l 0.24,1.8 0.12,1.8 v 27 -0.06 l -0.12,1.86 -0.24,1.8 -0.48,1.74 v -0.06 l -0.6,1.62 h 0.06 l -0.78,1.56 -0.9,1.5 v -0.06 l -1.02,1.38 -1.14,1.32 h 0.06 l -1.32,1.14 -1.38,1.02 v -0.06 l -1.44,0.9 h 0.06 l -1.62,0.78 -1.62,0.6 -1.74,0.42 h 0.06 l -1.8,0.3 -1.8,0.06 h -49.5 v 0.48 H 405 l 1.8,-0.06 h 0.06 l 1.8,-0.3 1.74,-0.42 h 0.06 l 1.62,-0.6 v -0.06 l 1.62,-0.78 1.44,-0.9 h 0.06 l 1.38,-1.02 1.32,-1.14 v -0.06 l 1.14,-1.32 1.02,-1.38 h 0.06 l 0.9,-1.5 0.78,-1.56 v -0.06 l 0.6,-1.62 0.48,-1.74 v -0.06 l 0.24,-1.8 0.12,-1.86 v -27.06 l -0.12,-1.8 -0.24,-1.8 -0.48,-1.74 v -0.06 l -0.6,-1.62 -0.78,-1.62 -0.9,-1.44 -0.06,-0.06 -1.02,-1.38 -1.14,-1.32 -1.32,-1.14 -1.38,-1.02 -0.06,-0.06 -1.44,-0.9" />
      <text
         id="text206"
         style="font-variant:normal;font-weight:normal;font-size:10.98px;font-family:'Times New Roman';-inkscape-font-specification:TimesNewRoman;writing-mode:lr-tb;fill:#000000;fill-opacity:1;fill-rule:nonzero;stroke:none"
         transform="matrix(1,0,0,-1,366.48,347.5417)"><tspan
           id="tspan200"
           y="0"
           x="0 5.464746 10.984392 14.011578 17.038765 21.959999">policy</tspan><tspan
           id="tspan202"
           y="12.119724"
           x="-17.999514 -13.092552 -7.6321979 0.94208401 4.0263662 9.4867201 12.549042 16.807087 19.869408 23.55759 28.464552 31.466484 34.528805 40.050648">administration</tspan><tspan
           id="tspan204"
           y="24.299837"
           x="3.0601261 6.1180558 11.613546 17.109035 20.166965">tools</tspan></text>
      <path
         id="path208"
         style="fill:#000000;fill-opacity:1;fill-rule:nonzero;stroke:none"
         d="m 312.96,334.042 v -3.3 l -0.66,0.18 -9.18,2.64 -1.62,0.48 1.62,0.48 9.18,2.7 0.66,0.18 v -0.66 l -0.36,-0.48 -9.18,-2.7 -0.3,0.96 h 0.3 l 9.18,-2.64 -0.3,-0.96 -0.36,0.48 v 2.64" />
      <path
         id="path210"
         style="fill:#000000;fill-opacity:1;fill-rule:nonzero;stroke:none"
         d="m 311.94,336.742 h 1.02 v -2.7 h -1.02 z" />
      <path
         id="path212"
         style="fill:#000000;fill-opacity:1;fill-rule:evenodd;stroke:none"
         d="m 312.48,334.042 v -2.64 l -9.18,2.64 9.18,2.7" />
      <path
         id="path214"
         style="fill:#000000;fill-opacity:1;fill-rule:nonzero;stroke:none"
         d="m 312.78,334.282 h 15.96 v -0.48 h -15.96 z" />
      <path
         id="path216"
         style="fill:#000000;fill-opacity:1;fill-rule:nonzero;stroke:none"
         d="m 190.98,428.602 v 3.3 l 0.66,-0.18 9.18,-2.64 1.62,-0.48 -1.62,-0.48 -9.18,-2.7 -0.66,-0.18 v 0.66 l 0.36,0.48 9.18,2.7 0.3,-0.96 h -0.3 l -9.18,2.64 0.3,0.96 0.36,-0.48 v -2.64" />
      <path
         id="path218"
         style="fill:#000000;fill-opacity:1;fill-rule:nonzero;stroke:none"
         d="M 190.98,428.602 H 192 v -2.7 h -1.02 z" />
      <path
         id="path220"
         style="fill:#000000;fill-opacity:1;fill-rule:evenodd;stroke:none"
         d="m 191.46,428.602 v 2.64 l 9.18,-2.64 -9.18,-2.7" />
      <path
         id="path222"
         style="fill:#000000;fill-opacity:1;fill-rule:nonzero;stroke:none"
         d="m 166.2,545.842 h 31.98 v -0.48 H 166.2 Z" />
      <path
         id="path224"
         style="fill:#000000;fill-opacity:1;fill-rule:nonzero;stroke:none"
         d="m 166.2,545.602 h 0.48 v -117.24 h -0.48 z" />
      <path
         id="path226"
         style="fill:#000000;fill-opacity:1;fill-rule:nonzero;stroke:none"
         d="m 166.44,428.842 h 24.72 v -0.48 h -24.72 z" />
      <path
         id="path228"
         style="fill:#000000;fill-opacity:1;fill-rule:nonzero;stroke:none"
         d="m 321.96,545.602 v -3.3 l -0.66,0.18 -9.18,2.64 -1.68,0.48 1.68,0.48 9.18,2.64 0.66,0.18 v -0.66 l -0.36,-0.48 -9.18,-2.64 -0.3,0.96 h 0.3 l 9.18,-2.64 -0.3,-0.96 -0.36,0.48 v 2.64" />
      <path
         id="path230"
         style="fill:#000000;fill-opacity:1;fill-rule:nonzero;stroke:none"
         d="m 320.94,548.242 h 1.02 v -2.64 h -1.02 z" />
      <path
         id="path232"
         style="fill:#000000;fill-opacity:1;fill-rule:evenodd;stroke:none"
         d="m 321.48,545.602 v -2.64 l -9.18,2.64 9.18,2.64" />
      <path
         id="path234"
         style="fill:#000000;fill-opacity:1;fill-rule:nonzero;stroke:none"
         d="m 314.76,428.842 h 31.98 v -0.48 h -31.98 z" />
      <path
         id="path236"
         style="fill:#000000;fill-opacity:1;fill-rule:nonzero;stroke:none"
         d="m 346.26,545.842 h 0.48 v -117.24 h -0.48 z" />
      <path
         id="path238"
         style="fill:#000000;fill-opacity:1;fill-rule:nonzero;stroke:none"
         d="m 321.78,545.842 h 24.72 v -0.48 h -24.72 z" />
      <text
         id="text248"
         style="font-variant:normal;font-weight:normal;font-size:10.98px;font-family:'Times New Roman';-inkscape-font-specification:TimesNewRoman;writing-mode:lr-tb;fill:#000000;fill-opacity:1;fill-rule:nonzero;stroke:none"
         transform="matrix(1,0,0,-1,216.36,492.6217)"><tspan
           id="tspan240"
           y="0"
           x="0 5.4603539 10.98 14.041224 17.102448 21.986353 27.485136 30.185118 35.683903 40.567806 45.45171 48.512936 52.792938 55.85416 61.314514 66.83416 69.594536 74.478439 79.938789">policy decision and</tspan><tspan
           id="tspan242"
           y="12.180114"
           x="-11.459826 -6.53859 -1.078236 2.5835941 8.0790844 11.740914 16.621525 21.502134 30.050064 34.930676 40.426163 43.484093 46.184074 50.50251 55.962864 61.458355 66.338966 71.834457 77.329941 80.387871 84.049706 88.930313 93.851547">enforcement subcontract</tspan><tspan
           id="tspan244"
           y="202.49976"
           x="-67.319481 -61.830578 -56.341675 -53.290333 -50.238991 -45.364967 -39.876064 -37.115692 -32.241673 -26.752769 -21.263868 -17.608625 -14.557284 -9.0683823 -3.5794799 0.075762004 4.9497838 8.0011263 11.052468 16.54137">policy configuration</tspan><tspan
           id="tspan246"
           y="214.67986"
           x="-47.939777 -43.658676 -38.198322 -32.698441 -27.813438 -22.313557 -16.853203 -13.79088 -10.124658 -5.239656 -0.35465401">subcontract</tspan></text>
      <path
         id="path250"
         style="fill:#000000;fill-opacity:1;fill-rule:nonzero;stroke:none"
         d="m 199.92,532.102 v 3.3 l 0.66,-0.18 10.92,-3.12 -10.92,-3.12 -0.66,-0.18 v 0.66 l 0.36,0.48 9.24,2.64 0.3,-0.96 h -0.3 l -9.24,2.64 0.3,0.96 0.36,-0.48 v -2.64" />
      <path
         id="path252"
         style="fill:#000000;fill-opacity:1;fill-rule:nonzero;stroke:none"
         d="m 199.92,532.102 h 1.02 v -2.64 h -1.02 z" />
      <path
         id="path254"
         style="fill:#000000;fill-opacity:1;fill-rule:evenodd;stroke:none"
         d="m 200.4,532.102 v 2.64 l 9.24,-2.64 -9.24,-2.64" />
      <path
         id="path256"
         style="fill:#000000;fill-opacity:1;fill-rule:nonzero;stroke:none"
         d="m 204.66,442.342 h 4.2 v -0.48 h -4.2 z" />
      <path
         id="path258"
         style="fill:#000000;fill-opacity:1;fill-rule:nonzero;stroke:none"
         d="m 188.7,442.342 h 4.2 v -0.48 h -4.2 z" />
      <path
         id="path260"
         style="fill:#000000;fill-opacity:1;fill-rule:nonzero;stroke:none"
         d="m 188.7,446.062 h 0.48 v -3.96 h -0.48 z" />
      <path
         id="path262"
         style="fill:#000000;fill-opacity:1;fill-rule:nonzero;stroke:none"
         d="m 188.7,461.182 h 0.48 v -8.58 h -0.48 z" />
      <path
         id="path264"
         style="fill:#000000;fill-opacity:1;fill-rule:nonzero;stroke:none"
         d="m 188.7,476.302 h 0.48 v -8.58 h -0.48 z" />
      <path
         id="path266"
         style="fill:#000000;fill-opacity:1;fill-rule:nonzero;stroke:none"
         d="m 188.7,491.362 h 0.48 v -8.52 h -0.48 z" />
      <path
         id="path268"
         style="fill:#000000;fill-opacity:1;fill-rule:nonzero;stroke:none"
         d="m 188.7,506.482 h 0.48 v -8.58 h -0.48 z" />
      <path
         id="path270"
         style="fill:#000000;fill-opacity:1;fill-rule:nonzero;stroke:none"
         d="m 188.7,521.602 h 0.48 v -8.58 h -0.48 z" />
      <path
         id="path272"
         style="fill:#000000;fill-opacity:1;fill-rule:nonzero;stroke:none"
         d="m 188.7,532.342 h 0.48 v -4.26 h -0.48 z" />
      <path
         id="path274"
         style="fill:#000000;fill-opacity:1;fill-rule:nonzero;stroke:none"
         d="m 188.94,532.342 h 3.96 v -0.48 h -3.96 z" />
      <path
         id="path276"
         style="fill:#000000;fill-opacity:1;fill-rule:nonzero;stroke:none"
         d="m 195.9,532.342 h 4.26 v -0.48 h -4.26 z" />
      <path
         id="path278"
         style="fill:#000000;fill-opacity:1;fill-rule:nonzero;stroke:none"
         d="m 312.9,442.102 v -3.3 l -0.66,0.18 -9.18,2.64 -1.68,0.48 1.68,0.48 9.18,2.64 0.66,0.18 v -0.66 l -0.36,-0.48 -9.18,-2.64 -0.3,0.96 h 0.3 l 9.18,-2.64 -0.3,-0.96 -0.36,0.48 v 2.64" />
      <path
         id="path280"
         style="fill:#000000;fill-opacity:1;fill-rule:nonzero;stroke:none"
         d="m 311.88,444.742 h 1.02 v -2.64 h -1.02 z" />
      <path
         id="path282"
         style="fill:#000000;fill-opacity:1;fill-rule:evenodd;stroke:none"
         d="m 312.42,442.102 v -2.64 l -9.18,2.64 9.18,2.64" />
      <path
         id="path284"
         style="fill:#000000;fill-opacity:1;fill-rule:nonzero;stroke:none"
         d="m 303.96,532.342 h 4.26 v -0.48 h -4.26 z" />
      <path
         id="path286"
         style="fill:#000000;fill-opacity:1;fill-rule:nonzero;stroke:none"
         d="m 319.92,532.342 h 4.26 v -0.48 h -4.26 z" />
      <path
         id="path288"
         style="fill:#000000;fill-opacity:1;fill-rule:nonzero;stroke:none"
         d="m 323.7,532.102 h 0.48 v -3.96 h -0.48 z" />
      <path
         id="path290"
         style="fill:#000000;fill-opacity:1;fill-rule:nonzero;stroke:none"
         d="m 323.7,521.602 h 0.48 v -8.58 h -0.48 z" />
      <path
         id="path292"
         style="fill:#000000;fill-opacity:1;fill-rule:nonzero;stroke:none"
         d="m 323.7,506.482 h 0.48 v -8.58 h -0.48 z" />
      <path
         id="path294"
         style="fill:#000000;fill-opacity:1;fill-rule:nonzero;stroke:none"
         d="m 323.7,491.362 h 0.48 v -8.52 h -0.48 z" />
      <path
         id="path296"
         style="fill:#000000;fill-opacity:1;fill-rule:nonzero;stroke:none"
         d="m 323.7,476.302 h 0.48 v -0.24 h -0.48 z" />
      <path
         id="path298"
         style="fill:#000000;fill-opacity:1;fill-rule:nonzero;stroke:none"
         d="m 323.7,476.062 h 0.48 v -8.34 h -0.48 z" />
      <path
         id="path300"
         style="fill:#000000;fill-opacity:1;fill-rule:nonzero;stroke:none"
         d="m 323.7,461.182 h 0.48 v -0.24 h -0.48 z" />
      <path
         id="path302"
         style="fill:#000000;fill-opacity:1;fill-rule:nonzero;stroke:none"
         d="m 323.7,460.942 h 0.48 v -8.34 h -0.48 z" />
      <path
         id="path304"
         style="fill:#000000;fill-opacity:1;fill-rule:nonzero;stroke:none"
         d="m 323.7,446.062 h 0.48 v -4.2 h -0.48 z" />
      <path
         id="path306"
         style="fill:#000000;fill-opacity:1;fill-rule:nonzero;stroke:none"
         d="m 319.92,442.342 h 4.02 v -0.48 h -4.02 z" />
      <path
         id="path308"
         style="fill:#000000;fill-opacity:1;fill-rule:nonzero;stroke:none"
         d="m 316.68,442.342 h 0.24 v -0.48 h -0.24 z" />
      <path
         id="path310"
         style="fill:#000000;fill-opacity:1;fill-rule:nonzero;stroke:none"
         d="m 312.72,442.342 h 3.96 v -0.48 h -3.96 z" />
  </g>
</svg>
